<svg xmlns="http://www.w3.org/2000/svg" width="419.827" height="419.829" viewBox="0 0 419.827 419.829"><defs><style>.a{fill:#f0f;}</style></defs><g transform="translate(897.829 -2371.099) rotate(90)"><path class="a" d="M3011,1110.536a7.367,7.367,0,1,0-7.366,7.364A7.369,7.369,0,0,0,3011,1110.536Z" transform="translate(-220.07 -220.07)"/><path class="a" d="M2951.482,1059.384a7.4,7.4,0,0,0,1.792-2.173,7.3,7.3,0,0,0,.852-2.756,7.451,7.451,0,0,0,.038-.753,7.369,7.369,0,0,0-6.614-7.328,7.365,7.365,0,1,0,0,14.654A7.336,7.336,0,0,0,2951.482,1059.384Z" transform="translate(-200.064 -200.064)"/><path class="a" d="M2951.482,945.717a7.348,7.348,0,1,0-3.931,1.645A7.395,7.395,0,0,0,2951.482,945.717Z" transform="translate(-200.064 -160.051)"/><path class="a" d="M3011,996.869a7.367,7.367,0,1,0-7.366,7.364A7.368,7.368,0,0,0,3011,996.869Z" transform="translate(-220.07 -180.058)"/><path class="a" d="M3011,883.2a7.367,7.367,0,1,0-7.366,7.363A7.368,7.368,0,0,0,3011,883.2Z" transform="translate(-220.07 -140.045)"/><path class="a" d="M2951.482,832.051a7.407,7.407,0,0,0,1.792-2.173,7.3,7.3,0,0,0,.852-2.756,7.43,7.43,0,0,0,.038-.752,7.371,7.371,0,0,0-6.614-7.329c-.248-.025-.5-.038-.753-.038a7.365,7.365,0,1,0,4.684,13.048Z" transform="translate(-200.064 -120.038)"/><path class="a" d="M2840.5,940.036a7.367,7.367,0,1,0-7.366,7.364A7.369,7.369,0,0,0,2840.5,940.036Z" transform="translate(-160.051 -160.051)"/><path class="a" d="M2783.665,883.2a7.367,7.367,0,1,0-7.366,7.363A7.368,7.368,0,0,0,2783.665,883.2Z" transform="translate(-140.045 -140.045)"/><path class="a" d="M2897.332,996.869a7.367,7.367,0,1,0-7.367,7.364A7.368,7.368,0,0,0,2897.332,996.869Z" transform="translate(-180.057 -180.058)"/><path class="a" d="M2897.332,883.2a7.367,7.367,0,1,0-7.367,7.363A7.368,7.368,0,0,0,2897.332,883.2Z" transform="translate(-180.057 -140.045)"/><path class="a" d="M2724.15,832.051a7.41,7.41,0,0,0,1.792-2.173,7.294,7.294,0,0,0,.852-2.756,7.43,7.43,0,0,0,.038-.752,7.329,7.329,0,0,0-.89-3.512,7.378,7.378,0,0,0-5.724-3.817c-.247-.025-.5-.038-.752-.038a7.364,7.364,0,0,0-7.366,7.366c0,.254.013.505.038.752a7.366,7.366,0,0,0,12.013,4.929Z" transform="translate(-120.038 -120.038)"/><path class="a" d="M2840.461,827.122a7.368,7.368,0,1,0-7.329,6.611A7.431,7.431,0,0,0,2840.461,827.122Z" transform="translate(-160.051 -120.038)"/><path class="a" d="M2951.482,718.384a7.406,7.406,0,0,0,1.792-2.173,7.368,7.368,0,0,0-5.724-10.837,7.365,7.365,0,1,0,0,14.654A7.336,7.336,0,0,0,2951.482,718.384Z" transform="translate(-200.064 -80.025)"/><path class="a" d="M3011,769.536a7.367,7.367,0,1,0-7.366,7.364A7.368,7.368,0,0,0,3011,769.536Z" transform="translate(-220.07 -100.032)"/><path class="a" d="M3011,655.869a7.367,7.367,0,1,0-7.366,7.364A7.368,7.368,0,0,0,3011,655.869Z" transform="translate(-220.07 -60.019)"/><path class="a" d="M2951.482,604.717a7.406,7.406,0,0,0,1.792-2.173,7.307,7.307,0,0,0,.852-2.757,7.438,7.438,0,0,0,.038-.752,7.37,7.37,0,0,0-6.614-7.329,7.365,7.365,0,1,0,0,14.654A7.335,7.335,0,0,0,2951.482,604.717Z" transform="translate(-200.064 -40.013)"/><path class="a" d="M2724.15,718.384a7.409,7.409,0,0,0,1.792-2.173,7.364,7.364,0,0,0,0-7.02,7.369,7.369,0,1,0-1.792,9.193Z" transform="translate(-120.038 -80.025)"/><path class="a" d="M2840.5,712.7a7.367,7.367,0,1,0-7.366,7.364A7.369,7.369,0,0,0,2840.5,712.7Z" transform="translate(-160.051 -80.025)"/><path class="a" d="M2783.665,769.536a7.367,7.367,0,1,0-7.366,7.364A7.368,7.368,0,0,0,2783.665,769.536Z" transform="translate(-140.045 -100.032)"/><path class="a" d="M2783.665,655.869a7.367,7.367,0,1,0-7.366,7.364A7.368,7.368,0,0,0,2783.665,655.869Z" transform="translate(-140.045 -60.019)"/><path class="a" d="M2897.332,769.536a7.367,7.367,0,1,0-7.367,7.364A7.368,7.368,0,0,0,2897.332,769.536Z" transform="translate(-180.057 -100.032)"/><path class="a" d="M2897.332,655.869a7.367,7.367,0,1,0-7.367,7.364A7.368,7.368,0,0,0,2897.332,655.869Z" transform="translate(-180.057 -60.019)"/><path class="a" d="M2724.15,604.717a7.409,7.409,0,0,0,1.792-2.173,7.3,7.3,0,0,0,.852-2.757,7.438,7.438,0,0,0,.038-.752,7.367,7.367,0,1,0-14.733,0q0,.381.038.752a7.366,7.366,0,0,0,12.013,4.929Z" transform="translate(-120.038 -40.013)"/><path class="a" d="M2840.461,599.788a7.368,7.368,0,1,0-7.329,6.611A7.439,7.439,0,0,0,2840.461,599.788Z" transform="translate(-160.051 -40.013)"/><path class="a" d="M2613.165,712.7a7.367,7.367,0,1,0-7.366,7.364A7.369,7.369,0,0,0,2613.165,712.7Z" transform="translate(-80.025 -80.025)"/><path class="a" d="M2556.332,655.869a7.367,7.367,0,1,0-7.367,7.364A7.368,7.368,0,0,0,2556.332,655.869Z" transform="translate(-60.019 -60.019)"/><path class="a" d="M2670,769.536a7.367,7.367,0,1,0-7.367,7.364A7.369,7.369,0,0,0,2670,769.536Z" transform="translate(-100.032 -100.032)"/><path class="a" d="M2670,655.869a7.367,7.367,0,1,0-7.367,7.364A7.369,7.369,0,0,0,2670,655.869Z" transform="translate(-100.032 -60.019)"/><path class="a" d="M2496.815,604.717a7.4,7.4,0,0,0,1.793-2.173,7.316,7.316,0,0,0,.852-2.757,7.439,7.439,0,0,0,.037-.752,7.37,7.37,0,1,0-2.683,5.681Z" transform="translate(-40.012 -40.013)"/><path class="a" d="M2613.127,599.788a7.367,7.367,0,1,0-7.328,6.611A7.438,7.438,0,0,0,2613.127,599.788Z" transform="translate(-80.025 -40.013)"/><path class="a" d="M2951.482,491.051a7.407,7.407,0,0,0,1.792-2.173,7.367,7.367,0,0,0,0-7.021,7.406,7.406,0,0,0-1.792-2.173,7.329,7.329,0,0,0-3.931-1.643,7.365,7.365,0,1,0-.753,14.692c.254,0,.505-.013.753-.038A7.336,7.336,0,0,0,2951.482,491.051Z" transform="translate(-200.064)"/><path class="a" d="M3011,542.2a7.367,7.367,0,1,0-7.366,7.363A7.369,7.369,0,0,0,3011,542.2Z" transform="translate(-220.07 -20.006)"/><path class="a" d="M2724.15,491.051a7.41,7.41,0,0,0,1.792-2.173,7.365,7.365,0,0,0,0-7.021,7.409,7.409,0,0,0-1.792-2.173,7.365,7.365,0,1,0-4.684,13.048c.254,0,.505-.013.752-.038A7.339,7.339,0,0,0,2724.15,491.051Z" transform="translate(-120.038)"/><path class="a" d="M2840.5,485.37a7.367,7.367,0,1,0-7.366,7.363A7.368,7.368,0,0,0,2840.5,485.37Z" transform="translate(-160.051)"/><path class="a" d="M2783.665,542.2a7.367,7.367,0,1,0-7.366,7.363A7.369,7.369,0,0,0,2783.665,542.2Z" transform="translate(-140.045 -20.006)"/><path class="a" d="M2897.332,542.2a7.367,7.367,0,1,0-7.367,7.363A7.369,7.369,0,0,0,2897.332,542.2Z" transform="translate(-180.057 -20.006)"/><path class="a" d="M2496.815,491.051a7.4,7.4,0,0,0,1.793-2.173,7.371,7.371,0,0,0,0-7.021,7.4,7.4,0,0,0-1.793-2.173,7.365,7.365,0,1,0-4.684,13.048q.381,0,.752-.038A7.334,7.334,0,0,0,2496.815,491.051Z" transform="translate(-40.012)"/><path class="a" d="M2613.165,485.37a7.367,7.367,0,1,0-7.366,7.363A7.368,7.368,0,0,0,2613.165,485.37Z" transform="translate(-80.025)"/><path class="a" d="M2556.332,542.2a7.367,7.367,0,1,0-7.367,7.363A7.369,7.369,0,0,0,2556.332,542.2Z" transform="translate(-60.019 -20.006)"/><path class="a" d="M2670,542.2a7.367,7.367,0,1,0-7.367,7.363A7.369,7.369,0,0,0,2670,542.2Z" transform="translate(-100.032 -20.006)"/><path class="a" d="M2385.832,485.37a7.367,7.367,0,1,0-7.367,7.363A7.368,7.368,0,0,0,2385.832,485.37Z"/><path class="a" d="M2442.665,542.2a7.367,7.367,0,1,0-7.366,7.363A7.369,7.369,0,0,0,2442.665,542.2Z" transform="translate(-20.006 -20.006)"/></g></svg>