<svg xmlns="http://www.w3.org/2000/svg" width="1097.532" height="1097.531" viewBox="0 0 1097.532 1097.531"><defs><style>.a{fill:#f0f;}</style></defs><g transform="translate(-2009.64 221.372)"><path class="a" d="M2255.931,24.919l1.441-1.44L2500.647-219.8a548.068,548.068,0,0,0-69.758,11.158L2228.072-5.821l-1.44,1.441-1.441,1.44L2022.375,199.877a548.071,548.071,0,0,0-11.158,69.758L2254.491,26.36Z" transform="translate(0.872 0.872)"/><path class="a" d="M2339.485,108.473l1.441-1.44,318.9-318.9q-25.329-5.018-50.958-7.641L2311.626,77.733l-1.441,1.44-1.44,1.441L2011.5,377.857q2.63,25.6,7.642,50.959l318.9-318.9Z" transform="translate(1.03 1.03)"/><path class="a" d="M2411.939,180.926l1.44-1.441,361.348-361.348q-20.379-9.516-41.323-17.277L2384.078,150.186l-1.44,1.44-1.441,1.44L2031.871,502.391q7.769,20.924,17.279,41.322L2410.5,182.366Z" transform="translate(12.294 12.295)"/><path class="a" d="M2475.607,244.6l1.441-1.44L2858.68-138.476q-16.733-12.933-34.188-24.413L2447.748,213.855l-1.441,1.441-1.44,1.44L2068.123,593.48q11.482,17.441,24.413,34.188l381.631-381.631Z" transform="translate(32.341 32.341)"/><path class="a" d="M2298.663,67.651l1.439-1.44,286.58-286.58a552.1,552.1,0,0,0-58.158-.443L2270.8,36.911l-1.439,1.44-1.44,1.44L2010.2,297.512a552.115,552.115,0,0,0,.443,58.158l286.58-286.58Z"/><path class="a" d="M2377.021,146.009l1.439-1.441,343.294-343.294q-22.589-7.48-45.635-12.964L2349.16,115.267l-1.44,1.441-1.441,1.44L2019.32,445.107q5.484,23.022,12.966,45.635L2375.58,147.448Z" transform="translate(5.353 5.354)"/><path class="a" d="M2444.709,213.7l1.439-1.44,373.943-373.944q-18.461-11.3-37.578-21.021L2416.85,182.957l-1.441,1.44-1.439,1.441L2048.3,551.5q9.726,19.1,21.023,37.578L2443.27,215.137Z" transform="translate(21.382 21.381)"/><path class="a" d="M2504.8,273.784l1.44-1.441L2890.979-112.4q-15.109-14.473-31.012-27.588L2476.936,243.044l-1.439,1.44-1.44,1.44L2091.024,628.956q13.115,15.89,27.588,31.012l384.743-384.744Z" transform="translate(45.006 45.006)"/><path class="a" d="M2135.79-95.223l1.441-1.44,57.262-57.262A545.6,545.6,0,0,0,2131.317-99.7c-.482.481-.952.968-1.431,1.449a545.6,545.6,0,0,0-52.8,61.727l57.264-57.264Z" transform="translate(37.298 37.298)"/><path class="a" d="M2206.934-24.08l1.439-1.44,181.363-181.363a540.268,540.268,0,0,0-98.841,40.24L2179.073-54.82l-1.439,1.441-1.441,1.44L2064.37,59.883a540.263,540.263,0,0,0-40.24,98.841L2205.493-22.639Z" transform="translate(8.013 8.013)"/><path class="a" d="M2553.507,322.495l-1.441,1.44-375.03,375.031q18.264,11.487,37.188,21.411l367.142-367.142,1.44-1.441,1.441-1.44L2951.389-16.788q-9.929-18.909-21.412-37.188l-375.031,375.03Z" transform="translate(92.57 92.57)"/><path class="a" d="M2596.926,365.914l-1.44,1.441L2249.9,712.946q22.323,7.722,45.118,13.482l329.774-329.772,1.439-1.441,1.439-1.44L2957.441,64q-5.76-22.771-13.483-45.118L2598.367,364.474Z" transform="translate(132.861 132.862)"/><path class="a" d="M2631.265,400.253l-1.441,1.44L2339.186,692.331a552.428,552.428,0,0,0,57.225,1.376l262.714-262.713,1.441-1.441,1.44-1.44L2924.719,165.4a552.549,552.549,0,0,0-1.376-57.225L2632.7,398.812Z" transform="translate(182.24 182.24)"/><path class="a" d="M2649.217,418.2l-1.439,1.441L2458.109,609.312a541.158,541.158,0,0,0,93.087-34.486l125.88-125.882,1.441-1.44,1.44-1.441,125.88-125.88a540.951,540.951,0,0,0,34.487-93.087L2650.656,416.765Z" transform="translate(248.004 248.004)"/><path class="a" d="M2576.177,345.165l-1.441,1.44-363,363q20.153,9.723,40.885,17.715L2604.036,375.9l1.439-1.441,1.441-1.44L2958.335,21.606q-8-20.709-17.715-40.884l-363,363Z" transform="translate(111.758 111.758)"/><path class="a" d="M2615.464,384.452l-1.439,1.441-321.96,321.96q24.987,5.323,50.3,8.3l300.966-300.964,1.439-1.441,1.441-1.44,300.963-300.965q-2.986-25.28-8.3-50.3l-321.96,321.96Z" transform="translate(156.181 156.181)"/><path class="a" d="M2643.314,412.3l-1.44,1.44L2393.09,662.526a548.443,548.443,0,0,0,68.08-9.48l210-210,1.44-1.44,1.44-1.441,210-210a548.8,548.8,0,0,0,9.479-68.08L2644.754,410.863Z" transform="translate(212.049 212.049)"/><path class="a" d="M2637.829,406.817l-1.441,1.44-82,82a543.292,543.292,0,0,0,91.115-72.889c.483-.478.969-.95,1.451-1.43a543.518,543.518,0,0,0,74.319-92.565l-82,82Z" transform="translate(301.245 301.245)"/><path class="a" d="M2503.085,272.073l-1.439,1.44L2116.827,658.331q14.935,14.643,30.669,27.932l383.448-383.45,1.441-1.44,1.44-1.441,383.45-383.448q-13.292-15.722-27.932-30.669L2504.524,270.633Z" transform="translate(59.275 59.275)"/><path class="a" d="M2529.1,298.093l-1.439,1.441-382.2,382.2q16.548,13.108,33.827,24.773l377.671-377.67,1.439-1.441,1.44-1.44L2937.516-51.718q-11.668-17.266-24.773-33.827l-382.2,382.2Z" transform="translate(75.112 75.113)"/></g></svg>