<svg xmlns="http://www.w3.org/2000/svg" width="918.158" height="756.778" viewBox="0 0 918.158 756.778"><defs><style>.a{fill:#9000ff;}</style></defs><g transform="translate(3004.423 352.924) rotate(135)"><path class="a" d="M1769.837,1733.825l.963-.963,257.212-257.212q-10.1-9.677-20.733-18.444l-256.068,256.067-.963.963-.963.963-256.067,256.068q8.767,10.623,18.444,20.733l257.212-257.212Z"/><path class="a" d="M1865.01,1829l-.963.963-250.719,250.718q12.209,7.679,24.861,14.315l245.445-245.445.963-.963.963-.963,245.445-245.445q-6.638-12.64-14.315-24.861l-250.718,250.719Z" transform="translate(-30.81 -30.81)"/><path class="a" d="M1947.071,1911.059l-.963.963-231.037,231.037q14.925,5.165,30.162,9.014L1965.7,1931.61l.963-.963.963-.963,220.463-220.464q-3.85-15.223-9.013-30.162L1948.034,1910.1Z" transform="translate(-56.909 -56.909)"/><path class="a" d="M2035.023,1999.011l-.963.963-194.3,194.3a369.409,369.409,0,0,0,38.256.92l175.632-175.632.963-.963.963-.963L2231.206,1842a369.409,369.409,0,0,0-.92-38.256l-194.3,194.3Z" transform="translate(-88.894 -88.894)"/><path class="a" d="M2133.59,2097.578l-.963.963-126.8,126.8a361.721,361.721,0,0,0,62.232-23.055l84.155-84.155.963-.963.963-.963,84.155-84.155a361.721,361.721,0,0,0,23.055-62.232l-126.8,126.8Z" transform="translate(-131.493 -131.493)"/><path class="a" d="M1905.422,1869.41l-.963.963L1661.781,2113.05q13.473,6.5,27.333,11.844l234.932-234.933.963-.963.963-.963L2160.906,1653.1q-5.349-13.845-11.844-27.333l-242.677,242.678Z" transform="translate(-43.239 -43.239)"/><path class="a" d="M1990.16,1954.148l-.962.963-215.24,215.24q16.705,3.557,33.625,5.552l201.2-201.2.963-.963.963-.963,201.2-201.2q-2-16.9-5.552-33.625l-215.24,215.241Z" transform="translate(-72.014 -72.014)"/><path class="a" d="M2082.316,2046.3l-.963.963-166.32,166.319a366.9,366.9,0,0,0,45.515-6.338l140.393-140.393.963-.963.963-.963,140.393-140.394a366.867,366.867,0,0,0,6.338-45.514l-166.32,166.32Z" transform="translate(-108.203 -108.203)"/><path class="a" d="M2196.056,2160.045l-.963.963-54.821,54.821a363.3,363.3,0,0,0,60.914-48.728c.322-.32.648-.635.969-.957a363.36,363.36,0,0,0,49.685-61.882l-54.821,54.821Z" transform="translate(-165.981 -165.981)"/><path class="a" d="M1787.475,1751.462l-.964.963L1529.25,2009.687q9.984,9.788,20.5,18.673L1806.1,1772.014l.963-.963.963-.963,256.347-256.347q-8.886-10.51-18.673-20.5L1788.437,1750.5Z" transform="translate(-9.243 -9.243)"/><path class="a" d="M1825.718,1789.706l-.963.963-255.51,255.51q11.062,8.762,22.614,16.562l252.484-252.484.963-.963.963-.963,252.484-252.484q-7.8-11.542-16.562-22.614l-255.51,255.51Z" transform="translate(-19.502 -19.502)"/></g></svg>