<svg xmlns="http://www.w3.org/2000/svg" width="409.946" height="409.946" viewBox="0 0 409.946 409.946"><defs><style>.a{fill:none;stroke:#9000ff;stroke-width:2px;}</style></defs><g transform="translate(-35.231 -35.231)"><g transform="translate(36.231 36.231)"><path class="a" d="M240.2,444.177a203.1,203.1,0,0,1-114.056-34.846A204.512,204.512,0,0,1,52.268,319.6,203.728,203.728,0,0,1,71.077,126.148,204.515,204.515,0,0,1,160.8,52.268,203.73,203.73,0,0,1,354.259,71.077,204.521,204.521,0,0,1,428.141,160.8a203.727,203.727,0,0,1-18.81,193.456A204.519,204.519,0,0,1,319.6,428.141,202.713,202.713,0,0,1,240.2,444.177Zm0-372.656c-93.012,0-168.683,75.671-168.683,168.683S147.192,408.887,240.2,408.887,408.887,333.216,408.887,240.2,333.216,71.521,240.2,71.521Z" transform="translate(-36.231 -36.231)"/></g><path class="a" d="M550.532,1015.4a59.25,59.25,0,0,0,57.654-45.995H579.9a32.282,32.282,0,1,1,0-26.991h28.287a59.316,59.316,0,1,0-57.654,72.986Zm128.52,0a59.249,59.249,0,0,0,57.654-45.995H708.42a32.282,32.282,0,1,1,0-26.991h28.286a59.316,59.316,0,1,0-57.653,72.986Z" transform="translate(-378.471 -715.814)"/></g></svg>