<svg xmlns="http://www.w3.org/2000/svg" xmlns:xlink="http://www.w3.org/1999/xlink" width="632.525" height="632.525" viewBox="0 0 632.525 632.525"><defs><style>.a{fill:url(#a);}.b{fill:none;}</style><linearGradient id="a" x1="0.5" x2="0.5" y2="1" gradientUnits="objectBoundingBox"><stop offset="0" stop-color="#f0f"/><stop offset="1" stop-color="#9000ff"/></linearGradient></defs><g transform="translate(-628.13 -628.13)"><g transform="translate(628.13 628.13)"><path class="a" d="M833.413,1304.67a124.336,124.336,0,0,0-36.893,21.421H629.34q.6-10.811,1.9-21.421Z" transform="translate(-628.844 -1027.468)"/><path class="a" d="M1094.545,1336.2a145.466,145.466,0,0,0-31.55,8.4H1041.98C1050.257,1341.718,1072.485,1334.9,1094.545,1336.2Z" transform="translate(-872.411 -1045.983)"/><path class="a" d="M1318.1,1304.67q1.985,1.217,3.987,2.536a65.339,65.339,0,0,0-6.175-2.536Z" transform="translate(-1034.102 -1027.468)"/><path class="a" d="M1411.04,1304.67h.012c0,.021-.008.045-.012.065Z" transform="translate(-1090.254 -1027.468)"/><path class="a" d="M1653.016,1353.238h-21.564q-4.413-1.193-9.231-2.2S1637.757,1349.32,1653.016,1353.238Z" transform="translate(-1214.906 -1054.614)"/><path class="a" d="M1760.745,1326.091H1574.4c-13.288-11.03-49.14-33.729-98.2-9.649.184-.184,6.1-6.1,17.275-11.771h265.369Q1760.153,1315.278,1760.745,1326.091Z" transform="translate(-1128.716 -1027.468)"/><path class="a" d="M628.339,1372.32H804.578a113.334,113.334,0,0,0-29.591,21.421H628.294c-.1-3.347-.164-6.707-.164-10.08C628.13,1379.863,628.208,1376.085,628.339,1372.32Z" transform="translate(-628.13 -1067.399)"/><path class="a" d="M1228.35,1402.748a119.425,119.425,0,0,1,35.68-15.168,110.932,110.932,0,0,0-29.575,15.168Z" transform="translate(-982.419 -1076.406)"/><path class="a" d="M1380.713,1408.93q1.328,3.061,2.741,6.421H1375.3Q1377.8,1412.136,1380.713,1408.93Z" transform="translate(-1069.158 -1089.009)"/><path class="a" d="M1480.212,1402.509h-34.979c-.873-1.889-1.729-3.724-2.59-5.5q-2.477-5.243-4.753-9.83C1449.711,1386.988,1465.658,1390.979,1480.212,1402.509Z" transform="translate(-1106.103 -1076.167)"/><path class="a" d="M1886.713,1383.661c0,3.372-.062,6.732-.164,10.08H1717.464c-6.376-8.3-15.656-15.639-28.694-21.421H1886.5C1886.635,1376.085,1886.713,1379.863,1886.713,1383.661Z" transform="translate(-1254.188 -1067.399)"/><path class="a" d="M629.33,1443.05H769.074a87.625,87.625,0,0,0-12.3,21.175H631.211Q629.926,1453.74,629.33,1443.05Z" transform="translate(-628.838 -1109.149)"/><path class="a" d="M1179.84,1443.05a101.368,101.368,0,0,0-18.237,21.175h-9.633a125.888,125.888,0,0,1,20.733-21.175Z" transform="translate(-937.334 -1109.149)"/><path class="a" d="M1373.217,1464.225H1338.5a82.77,82.77,0,0,1,9.74-21.175h16.643c1.139,2.79,2.3,5.708,3.52,8.719C1369.931,1455.752,1371.594,1459.886,1373.217,1464.225Z" transform="translate(-1047.436 -1109.149)"/><path class="a" d="M1504.067,1443.05a90.453,90.453,0,0,1,14.82,21.175H1473.6q-1.61-3.81-3.212-7.461c-2.036-4.8-4.138-9.358-6.076-13.714Z" transform="translate(-1121.698 -1109.149)"/><path class="a" d="M1630.29,1493.82s.1.127.275.373h-.188C1630.351,1494.07,1630.319,1493.943,1630.29,1493.82Z" transform="translate(-1219.67 -1139.116)"/><path class="a" d="M1934.605,1443.05q-.584,10.688-1.881,21.175H1777.3a59.409,59.409,0,0,0-6.564-21.175Z" transform="translate(-1302.572 -1109.149)"/><path class="a" d="M637.52,1520.56H758.048a102.209,102.209,0,0,0-3.307,21.167H641.589Q639.2,1531.273,637.52,1520.56Z" transform="translate(-633.673 -1154.9)"/><path class="a" d="M1081.254,1520.56a107.258,107.258,0,0,0-3.1,21.167H1062.3a148.09,148.09,0,0,1,13.829-21.167Z" transform="translate(-884.405 -1154.9)"/><path class="a" d="M1129.285,1520.56a98.313,98.313,0,0,0-7.216,21.167h-14.89a134.445,134.445,0,0,1,10.932-21.167Z" transform="translate(-910.896 -1154.9)"/><path class="a" d="M1186.276,1530.82a112.767,112.767,0,0,0-9.444,16.963h-4.642A89.276,89.276,0,0,1,1186.276,1530.82Z" transform="translate(-949.269 -1160.956)"/><path class="a" d="M1380.116,1541.727H1331.6a79.045,79.045,0,0,1,.139-21.167H1372.7C1375.142,1527.284,1377.6,1534.368,1380.116,1541.727Z" transform="translate(-1042.985 -1154.9)"/><path class="a" d="M1543.322,1520.56a135.42,135.42,0,0,1,6.183,21.167h-43.44q-1.364-3.577-2.712-7.076c-1.913-4.818-3.8-9.526-5.663-14.091Z" transform="translate(-1141.401 -1154.9)"/><path class="a" d="M1642.121,1541.727H1624.4a61.95,61.95,0,0,0,3.712-21.167h5.417A115.3,115.3,0,0,1,1642.121,1541.727Z" transform="translate(-1216.193 -1154.9)"/><path class="a" d="M1937.418,1520.56q-1.678,10.707-4.069,21.167H1781.19a101.886,101.886,0,0,0,2.8-21.167Z" transform="translate(-1308.741 -1154.9)"/><path class="a" d="M794.958,1707.46q3.27,10.418,7.982,21.79H702.329q-5.642-10.663-10.489-21.79Z" transform="translate(-665.736 -1265.22)"/><path class="a" d="M1052.81,1729.25H963.16a209.314,209.314,0,0,1,4.179-21.79H1044.6A65.873,65.873,0,0,0,1052.81,1729.25Z" transform="translate(-825.887 -1265.22)"/><path class="a" d="M1408.96,1729.25h-54.118a128.3,128.3,0,0,1-13.292-21.79h61.694c.143.524.291,1.049.439,1.573,1.766,6.5,3.454,13.112,5.167,19.77C1408.886,1728.95,1408.923,1729.1,1408.96,1729.25Z" transform="translate(-1049.237 -1265.22)"/><path class="a" d="M1787.812,1707.46q-4.837,11.125-10.493,21.79H1572.106q-1.229-4.2-2.479-8.379c-1.4-4.5-2.782-8.977-4.187-13.411h61.444q-.234,2.292-.565,4.642s1.192-1.664,3.1-4.642Z" transform="translate(-1181.391 -1265.22)"/><path class="a" d="M949.8,1818.39c10.764,7.945,24.863,15.16,43.116,21.167H766.243q-7.892-10.264-14.943-21.167Z" transform="translate(-700.833 -1330.698)"/><path class="a" d="M1436.149,1839.557h-45.489a168.26,168.26,0,0,1-20.151-21.167h61.136q1.856,8.217,3.549,16.5Q1435.674,1837.226,1436.149,1839.557Z" transform="translate(-1066.331 -1330.698)"/><path class="a" d="M1782.674,1818.39q-7.043,10.9-14.943,21.167H1603.476c-.115-.479-.229-.963-.344-1.446q-1.34-5.224-2.688-10.448-1.186-4.646-2.434-9.272Z" transform="translate(-1200.616 -1330.698)"/><path class="a" d="M1139.862,1961.242q.436,2.987.869,5.949h-262.8q-12.224-10.006-23.4-21.171h282.844q.424,2.563.848,5.113C1138.767,1954.518,1139.39,1957.874,1139.862,1961.242Z" transform="translate(-761.766 -1406.034)"/><path class="a" d="M1758.551,1946.02q-11.161,11.155-23.408,21.171H1633.131c-.119-.582-.238-1.168-.356-1.754q-1.008-5.113-2.028-10.288c-.582-3.04-1.282-6.076-1.946-9.129Z" transform="translate(-1218.791 -1406.034)"/><path class="a" d="M1269.492,2115.361c.066.811.135,1.618.2,2.421a317.438,317.438,0,0,1-209.043-24.363H1267.4c.127,1.221.25,2.434.377,3.643q.485,4.677.963,9.252Q1269.119,2110.894,1269.492,2115.361Z" transform="translate(-883.431 -1493.039)"/><path class="a" d="M1690.059,2093.42a313.831,313.831,0,0,1-32.213,13.636q-.344-2.563-.693-5.167-.645-4.186-1.3-8.469Z" transform="translate(-1234.757 -1493.039)"/><path class="a" d="M765.906,1607.17a154.465,154.465,0,0,0,3,21.79H663.21q-3.841-10.719-6.921-21.79Z" transform="translate(-644.752 -1206.023)"/><path class="a" d="M996.2,1630.731H987.18a145.091,145.091,0,0,1,8.879-20.561A126.837,126.837,0,0,0,996.2,1630.731Z" transform="translate(-840.065 -1207.794)"/><path class="a" d="M1085.341,1607.17a97.477,97.477,0,0,0-4.3,21.79h-54.5a188.885,188.885,0,0,1,7.752-21.79h38.028a122.354,122.354,0,0,0-.393,13.353s2.122-5.658,6.027-13.353Z" transform="translate(-863.297 -1206.023)"/><path class="a" d="M1321.59,1651.19s1.156,1.471,3.294,3.753h-2.335Q1322.039,1653.087,1321.59,1651.19Z" transform="translate(-1037.455 -1232.006)"/><path class="a" d="M1396.782,1628.96h-47.75a110.293,110.293,0,0,1-9.141-21.79h50.188C1392.344,1614.226,1394.61,1621.494,1396.782,1628.96Z" transform="translate(-1048.257 -1206.023)"/><path class="a" d="M1590.279,1607.17a96.729,96.729,0,0,1,.779,21.79H1538.9q-1.149-3.411-2.344-6.769-2.618-7.652-5.339-15.021Z" transform="translate(-1161.192 -1206.023)"/><path class="a" d="M1693.579,1607.17a128.086,128.086,0,0,1,2.946,21.79H1682.59a71.435,71.435,0,0,0,7.637-21.79Z" transform="translate(-1250.541 -1206.023)"/><path class="a" d="M1910.314,1607.17q-3.073,11.063-6.92,21.79H1748.3a186.852,186.852,0,0,0,9.281-21.79Z" transform="translate(-1289.327 -1206.023)"/><path class="a" d="M1614.711,1285.887H1539.07C1556.3,1279.2,1581.846,1275.119,1614.711,1285.887Z" transform="translate(-1165.826 -1012.467)"/><path class="a" d="M1733.307,1271.823h-47.324a44.9,44.9,0,0,0-27.952-15.648S1694.4,1250.247,1733.307,1271.823Z" transform="translate(-1236.044 -998.403)"/><path class="a" d="M1261.926,901.55H1131.245c-2.639-4-10.743-15.045-23.441-21.228,0,0,28.108,2.893,52.7,20.667,0,0-57.248-125.109-162.513-37.478A89.092,89.092,0,0,1,1032.56,833.2c-1,.131-63.55,8.674-78.6,68.348h-.737c.86-11.854,6.441-48.418,42.285-71.933,0,0-13.5.549-23.142,7.711.262-.43,17.319-27.907,47.669-38.023a31.933,31.933,0,0,0-23.974,0s12.677-15.156,36.376-20.118c0,0-100.307-43.264-98.1,81.292,0,0-5.1-22.527-.967-43.608,0,0-13.5,21.425-10.883,48.3,0,0-28.661-32.1-68.344-38.995,0,0,25.432,13.951,39.515,31.5-2.688-2.983-36.741-39.478-88.29-29.427-53.733,10.469-55.663,62.276-55.663,62.276S770.1,875.36,794.344,870.4c0,0-12.394,9.916-17.909,22.314.426-.27,30.591-19.258,69.442-15.427,0,0-13.226,3.581-24.8,16.258,0,0,39.22-18.77,88.659,8h-8.609a115.033,115.033,0,0,0-51.549,0H635.17c20.909-154.4,153.241-273.42,313.378-273.42S1241.017,747.15,1261.926,901.55Z" transform="translate(-632.285 -628.13)"/></g><path class="a" d="M962.99,1760.64h.07c-.012.086-.016.127-.016.127C963.027,1760.726,963.006,1760.681,962.99,1760.64Z" transform="translate(-197.656 -668.481)"/><path class="a" d="M1103.425,1572.22c-1.778,4.384-2.536,7.039-2.536,7.039-.1-2.389-.09-4.745,0-7.039Z" transform="translate(-279.011 -557.263)"/><path class="a" d="M1393.479,1708.378c-.643-.3-1.283-.6-1.909-.918h1.1C1393.156,1708.021,1393.438,1708.333,1393.479,1708.378Z" transform="translate(-450.632 -637.09)"/><line class="b" x1="8.297" transform="translate(947.998 1115.822)"/><path class="a" d="M1624.15,1572.22h.1c-.041.111-.066.168-.066.168C1624.175,1572.331,1624.162,1572.273,1624.15,1572.22Z" transform="translate(-587.916 -557.263)"/><path class="a" d="M1035.229,1356.95h1.893c-2.09.729-3.29,1.209-3.372,1.237C1034.242,1357.77,1034.737,1357.356,1035.229,1356.95Z" transform="translate(-239.423 -430.197)"/><path class="a" d="M1724.733,1295.44c.242.3.365.471.365.471-.475-.16-.946-.316-1.417-.471Z" transform="translate(-646.665 -393.89)"/></g></svg>